<mxfile host="app.diagrams.net" agent="Mozilla/5.0 (X11; Linux x86_64) AppleWebKit/537.36 (KHTML, like Gecko) Chrome/123.0.0.0 Safari/537.36" version="28.2.0">
  <diagram name="Page-1" id="re7G4cixT8xJmtgRn8GG">
    <mxGraphModel dx="2443" dy="2039" grid="1" gridSize="10" guides="1" tooltips="1" connect="1" arrows="1" fold="1" page="1" pageScale="1" pageWidth="850" pageHeight="1100" math="1" shadow="0">
      <root>
        <mxCell id="0" />
        <mxCell id="1" parent="0" />
        <mxCell id="MimBpEYXxQ-8eqgBg-uS-10" style="edgeStyle=orthogonalEdgeStyle;rounded=0;orthogonalLoop=1;jettySize=auto;html=1;exitX=1;exitY=0.5;exitDx=0;exitDy=0;entryX=0;entryY=0;entryDx=0;entryDy=0;" edge="1" parent="1" source="MimBpEYXxQ-8eqgBg-uS-1" target="MimBpEYXxQ-8eqgBg-uS-8">
          <mxGeometry relative="1" as="geometry">
            <Array as="points">
              <mxPoint x="220" y="340" />
              <mxPoint x="220" y="416" />
            </Array>
          </mxGeometry>
        </mxCell>
        <mxCell id="MimBpEYXxQ-8eqgBg-uS-12" style="edgeStyle=orthogonalEdgeStyle;rounded=0;orthogonalLoop=1;jettySize=auto;html=1;exitX=1;exitY=0.5;exitDx=0;exitDy=0;entryX=0;entryY=0.5;entryDx=0;entryDy=0;" edge="1" parent="1" source="MimBpEYXxQ-8eqgBg-uS-1" target="MimBpEYXxQ-8eqgBg-uS-6">
          <mxGeometry relative="1" as="geometry" />
        </mxCell>
        <mxCell id="MimBpEYXxQ-8eqgBg-uS-1" value="&lt;font style=&quot;font-size: 14px;&quot;&gt;x&lt;/font&gt;" style="ellipse;whiteSpace=wrap;html=1;aspect=fixed;" vertex="1" parent="1">
          <mxGeometry x="140" y="320" width="40" height="40" as="geometry" />
        </mxCell>
        <mxCell id="MimBpEYXxQ-8eqgBg-uS-11" style="edgeStyle=orthogonalEdgeStyle;rounded=0;orthogonalLoop=1;jettySize=auto;html=1;exitX=1;exitY=0.5;exitDx=0;exitDy=0;entryX=0;entryY=0.5;entryDx=0;entryDy=0;" edge="1" parent="1" source="MimBpEYXxQ-8eqgBg-uS-2" target="MimBpEYXxQ-8eqgBg-uS-8">
          <mxGeometry relative="1" as="geometry" />
        </mxCell>
        <mxCell id="MimBpEYXxQ-8eqgBg-uS-2" value="&lt;font style=&quot;font-size: 14px;&quot;&gt;y&lt;/font&gt;" style="ellipse;whiteSpace=wrap;html=1;aspect=fixed;" vertex="1" parent="1">
          <mxGeometry x="140" y="410" width="40" height="40" as="geometry" />
        </mxCell>
        <mxCell id="MimBpEYXxQ-8eqgBg-uS-13" style="edgeStyle=orthogonalEdgeStyle;rounded=0;orthogonalLoop=1;jettySize=auto;html=1;exitX=1;exitY=0.5;exitDx=0;exitDy=0;entryX=0;entryY=0.5;entryDx=0;entryDy=0;" edge="1" parent="1" source="MimBpEYXxQ-8eqgBg-uS-3" target="MimBpEYXxQ-8eqgBg-uS-7">
          <mxGeometry relative="1" as="geometry" />
        </mxCell>
        <mxCell id="MimBpEYXxQ-8eqgBg-uS-3" value="&lt;font style=&quot;font-size: 14px;&quot;&gt;z&lt;/font&gt;" style="ellipse;whiteSpace=wrap;html=1;aspect=fixed;" vertex="1" parent="1">
          <mxGeometry x="140" y="500" width="40" height="40" as="geometry" />
        </mxCell>
        <mxCell id="MimBpEYXxQ-8eqgBg-uS-17" style="edgeStyle=orthogonalEdgeStyle;rounded=0;orthogonalLoop=1;jettySize=auto;html=1;exitX=1;exitY=0.5;exitDx=0;exitDy=0;" edge="1" parent="1" source="MimBpEYXxQ-8eqgBg-uS-4">
          <mxGeometry relative="1" as="geometry">
            <mxPoint x="560" y="430" as="targetPoint" />
          </mxGeometry>
        </mxCell>
        <mxCell id="MimBpEYXxQ-8eqgBg-uS-4" value="&lt;span style=&quot;font-size: 14px;&quot;&gt;+&lt;/span&gt;" style="ellipse;whiteSpace=wrap;html=1;aspect=fixed;" vertex="1" parent="1">
          <mxGeometry x="440" y="410" width="40" height="40" as="geometry" />
        </mxCell>
        <mxCell id="MimBpEYXxQ-8eqgBg-uS-16" style="edgeStyle=orthogonalEdgeStyle;rounded=0;orthogonalLoop=1;jettySize=auto;html=1;exitX=1;exitY=0.5;exitDx=0;exitDy=0;entryX=0.5;entryY=0;entryDx=0;entryDy=0;" edge="1" parent="1" source="MimBpEYXxQ-8eqgBg-uS-6" target="MimBpEYXxQ-8eqgBg-uS-4">
          <mxGeometry relative="1" as="geometry" />
        </mxCell>
        <mxCell id="MimBpEYXxQ-8eqgBg-uS-6" value="&lt;span style=&quot;font-size: 14px;&quot;&gt;Ïƒ()&lt;/span&gt;" style="ellipse;whiteSpace=wrap;html=1;aspect=fixed;" vertex="1" parent="1">
          <mxGeometry x="300" y="320" width="40" height="40" as="geometry" />
        </mxCell>
        <mxCell id="MimBpEYXxQ-8eqgBg-uS-14" style="edgeStyle=orthogonalEdgeStyle;rounded=0;orthogonalLoop=1;jettySize=auto;html=1;exitX=1;exitY=0.5;exitDx=0;exitDy=0;entryX=0.5;entryY=1;entryDx=0;entryDy=0;" edge="1" parent="1" source="MimBpEYXxQ-8eqgBg-uS-7" target="MimBpEYXxQ-8eqgBg-uS-4">
          <mxGeometry relative="1" as="geometry" />
        </mxCell>
        <mxCell id="MimBpEYXxQ-8eqgBg-uS-7" value="&lt;span style=&quot;font-size: 14px;&quot;&gt;^2&lt;/span&gt;" style="ellipse;whiteSpace=wrap;html=1;aspect=fixed;" vertex="1" parent="1">
          <mxGeometry x="300" y="500" width="40" height="40" as="geometry" />
        </mxCell>
        <mxCell id="MimBpEYXxQ-8eqgBg-uS-15" style="edgeStyle=orthogonalEdgeStyle;rounded=0;orthogonalLoop=1;jettySize=auto;html=1;exitX=1;exitY=0.5;exitDx=0;exitDy=0;entryX=0;entryY=0.5;entryDx=0;entryDy=0;" edge="1" parent="1" source="MimBpEYXxQ-8eqgBg-uS-8" target="MimBpEYXxQ-8eqgBg-uS-4">
          <mxGeometry relative="1" as="geometry" />
        </mxCell>
        <mxCell id="MimBpEYXxQ-8eqgBg-uS-8" value="&lt;span style=&quot;font-size: 14px;&quot;&gt;/&lt;/span&gt;" style="ellipse;whiteSpace=wrap;html=1;aspect=fixed;" vertex="1" parent="1">
          <mxGeometry x="300" y="410" width="40" height="40" as="geometry" />
        </mxCell>
        <mxCell id="MimBpEYXxQ-8eqgBg-uS-18" value="&lt;font style=&quot;font-size: 14px;&quot;&gt;f&lt;/font&gt;" style="text;html=1;align=center;verticalAlign=middle;resizable=0;points=[];autosize=1;strokeColor=none;fillColor=none;" vertex="1" parent="1">
          <mxGeometry x="494" y="400" width="30" height="30" as="geometry" />
        </mxCell>
        <mxCell id="MimBpEYXxQ-8eqgBg-uS-19" value="&lt;font style=&quot;font-size: 14px;&quot;&gt;a&lt;/font&gt;" style="text;html=1;align=center;verticalAlign=middle;resizable=0;points=[];autosize=1;strokeColor=none;fillColor=none;" vertex="1" parent="1">
          <mxGeometry x="330" y="290" width="30" height="30" as="geometry" />
        </mxCell>
        <mxCell id="MimBpEYXxQ-8eqgBg-uS-20" value="&lt;font style=&quot;font-size: 14px;&quot;&gt;b&lt;/font&gt;" style="text;html=1;align=center;verticalAlign=middle;resizable=0;points=[];autosize=1;strokeColor=none;fillColor=none;" vertex="1" parent="1">
          <mxGeometry x="330" y="380" width="30" height="30" as="geometry" />
        </mxCell>
        <mxCell id="MimBpEYXxQ-8eqgBg-uS-21" value="&lt;font style=&quot;font-size: 14px;&quot;&gt;c&lt;/font&gt;" style="text;html=1;align=center;verticalAlign=middle;resizable=0;points=[];autosize=1;strokeColor=none;fillColor=none;" vertex="1" parent="1">
          <mxGeometry x="330" y="470" width="30" height="30" as="geometry" />
        </mxCell>
        <mxCell id="MimBpEYXxQ-8eqgBg-uS-23" value="&lt;font style=&quot;color: rgb(51, 255, 51);&quot;&gt;-1&lt;/font&gt;" style="whiteSpace=wrap;html=1;aspect=fixed;fillColor=none;strokeColor=#33FF33;" vertex="1" parent="1">
          <mxGeometry x="170" y="280" width="30" height="30" as="geometry" />
        </mxCell>
        <mxCell id="MimBpEYXxQ-8eqgBg-uS-24" value="&lt;font style=&quot;color: rgb(51, 255, 51);&quot;&gt;2&lt;/font&gt;" style="whiteSpace=wrap;html=1;aspect=fixed;fillColor=none;strokeColor=#33FF33;" vertex="1" parent="1">
          <mxGeometry x="170" y="379" width="30" height="30" as="geometry" />
        </mxCell>
        <mxCell id="MimBpEYXxQ-8eqgBg-uS-25" value="&lt;font style=&quot;color: rgb(51, 255, 51);&quot;&gt;2&lt;/font&gt;" style="whiteSpace=wrap;html=1;aspect=fixed;fillColor=none;strokeColor=#33FF33;" vertex="1" parent="1">
          <mxGeometry x="170" y="469" width="30" height="30" as="geometry" />
        </mxCell>
        <mxCell id="MimBpEYXxQ-8eqgBg-uS-35" value="&lt;span style=&quot;background-color: transparent; font-size: 16px;&quot;&gt;\(\frac{\partial a}{\partial x} = \frac{\partial \sigma(x)}{\partial x} = \sigma(x)\,(1 - \sigma(x))\)&lt;/span&gt;" style="text;html=1;align=center;verticalAlign=middle;resizable=0;points=[];autosize=1;strokeColor=none;fillColor=none;" vertex="1" parent="1">
          <mxGeometry x="-90" y="20" width="660" height="30" as="geometry" />
        </mxCell>
        <mxCell id="MimBpEYXxQ-8eqgBg-uS-37" value="&lt;div&gt;&lt;span style=&quot;font-size: 15px;&quot;&gt;\(\text{,where } \sigma(x) = \frac{1}{1 + e^{-x}}\)&lt;/span&gt;&lt;/div&gt;&lt;div&gt;&lt;br&gt;&lt;/div&gt;" style="text;html=1;align=center;verticalAlign=middle;resizable=0;points=[];autosize=1;strokeColor=none;fillColor=none;" vertex="1" parent="1">
          <mxGeometry x="290" y="20" width="330" height="50" as="geometry" />
        </mxCell>
        <mxCell id="MimBpEYXxQ-8eqgBg-uS-38" value="&lt;div&gt;&lt;div&gt;&lt;span style=&quot;font-size: 15px;&quot;&gt;\(\text{so for } x = -1 \text{ we get:}\)&lt;/span&gt;&lt;/div&gt;&lt;/div&gt;&lt;div&gt;&lt;br&gt;&lt;/div&gt;" style="text;html=1;align=center;verticalAlign=middle;resizable=0;points=[];autosize=1;strokeColor=none;fillColor=none;" vertex="1" parent="1">
          <mxGeometry x="70" y="60" width="260" height="50" as="geometry" />
        </mxCell>
        <mxCell id="MimBpEYXxQ-8eqgBg-uS-41" value="&lt;div&gt;&lt;div&gt;&lt;div&gt;&lt;span style=&quot;font-size: 15px;&quot;&gt;\(\frac{\partial a}{\partial x} = \frac{1}{1+e}\left(1 - \frac{1}{1+e}\right) = \frac{1}{1+e}\left(\frac{1+e}{1+e} - \frac{1}{1+e}\right) = \frac{e}{(1+e)^2} \approx 0.197\)&lt;/span&gt;&lt;/div&gt;&lt;/div&gt;&lt;/div&gt;&lt;div&gt;&lt;br&gt;&lt;/div&gt;" style="text;html=1;align=center;verticalAlign=middle;resizable=0;points=[];autosize=1;strokeColor=none;fillColor=none;" vertex="1" parent="1">
          <mxGeometry x="-199" y="100" width="1060" height="50" as="geometry" />
        </mxCell>
        <mxCell id="MimBpEYXxQ-8eqgBg-uS-42" value="&lt;font style=&quot;font-size: 14px;&quot;&gt;The forward calculations are displayed with green boxes.&lt;/font&gt;&lt;div&gt;&lt;font style=&quot;font-size: 14px;&quot;&gt;The derivative calculations are non-trivial and thus the work on them&amp;nbsp;&lt;/font&gt;&lt;/div&gt;&lt;div&gt;&lt;font style=&quot;font-size: 14px;&quot;&gt;is shown below:&lt;/font&gt;&lt;/div&gt;" style="text;html=1;align=center;verticalAlign=middle;resizable=0;points=[];autosize=1;strokeColor=none;fillColor=none;" vertex="1" parent="1">
          <mxGeometry x="105" y="-70" width="450" height="60" as="geometry" />
        </mxCell>
        <mxCell id="MimBpEYXxQ-8eqgBg-uS-43" value="" style="ellipse;whiteSpace=wrap;html=1;aspect=fixed;fillColor=#000000;" vertex="1" parent="1">
          <mxGeometry x="80" y="30" width="10" height="10" as="geometry" />
        </mxCell>
        <mxCell id="MimBpEYXxQ-8eqgBg-uS-45" value="" style="ellipse;whiteSpace=wrap;html=1;aspect=fixed;fillColor=#000000;" vertex="1" parent="1">
          <mxGeometry x="80" y="180" width="10" height="10" as="geometry" />
        </mxCell>
        <mxCell id="MimBpEYXxQ-8eqgBg-uS-48" value="&lt;div&gt;&lt;font style=&quot;font-size: 16px;&quot;&gt;\(\frac{\partial b}{\partial x} = \frac{1}{y} = \frac{1}{2}\)&lt;/font&gt;&lt;/div&gt;&lt;div&gt;&lt;br&gt;&lt;/div&gt;" style="text;html=1;align=center;verticalAlign=middle;resizable=0;points=[];autosize=1;strokeColor=none;fillColor=none;" vertex="1" parent="1">
          <mxGeometry x="-25" y="170" width="390" height="50" as="geometry" />
        </mxCell>
        <mxCell id="MimBpEYXxQ-8eqgBg-uS-49" value="&lt;div&gt;&lt;div&gt;&lt;font style=&quot;font-size: 16px;&quot;&gt;\(\frac{\partial b}{\partial y} = -\frac{x}{y^2} = \frac{1}{4}\)&lt;/font&gt;&lt;/div&gt;&lt;/div&gt;&lt;div&gt;&lt;br&gt;&lt;/div&gt;" style="text;html=1;align=center;verticalAlign=middle;resizable=0;points=[];autosize=1;strokeColor=none;fillColor=none;" vertex="1" parent="1">
          <mxGeometry x="-25" y="230" width="410" height="50" as="geometry" />
        </mxCell>
        <mxCell id="MimBpEYXxQ-8eqgBg-uS-50" value="" style="ellipse;whiteSpace=wrap;html=1;aspect=fixed;fillColor=#000000;" vertex="1" parent="1">
          <mxGeometry x="80" y="240" width="10" height="10" as="geometry" />
        </mxCell>
        <mxCell id="MimBpEYXxQ-8eqgBg-uS-52" value="" style="ellipse;whiteSpace=wrap;html=1;aspect=fixed;fillColor=#000000;" vertex="1" parent="1">
          <mxGeometry x="330" y="180" width="10" height="10" as="geometry" />
        </mxCell>
        <mxCell id="MimBpEYXxQ-8eqgBg-uS-53" value="&lt;div&gt;&lt;div&gt;&lt;font style=&quot;font-size: 16px;&quot;&gt;\(\frac{\partial c}{\partial z} = 2z = 4\)&lt;/font&gt;&lt;/div&gt;&lt;/div&gt;&lt;div&gt;&lt;br&gt;&lt;/div&gt;" style="text;html=1;align=center;verticalAlign=middle;resizable=0;points=[];autosize=1;strokeColor=none;fillColor=none;" vertex="1" parent="1">
          <mxGeometry x="274" y="167" width="280" height="50" as="geometry" />
        </mxCell>
        <mxCell id="MimBpEYXxQ-8eqgBg-uS-56" value="" style="ellipse;whiteSpace=wrap;html=1;aspect=fixed;fillColor=#000000;" vertex="1" parent="1">
          <mxGeometry x="330" y="240" width="10" height="10" as="geometry" />
        </mxCell>
        <mxCell id="MimBpEYXxQ-8eqgBg-uS-58" value="&lt;div&gt;&lt;div&gt;&lt;div&gt;&lt;font style=&quot;font-size: 16px;&quot;&gt;\(\frac{\partial f}{\partial a} = \frac{\partial f}{\partial b}&amp;nbsp;= \frac{\partial f}{\partial c}\)&lt;/font&gt;&lt;/div&gt;&lt;div&gt;&lt;br&gt;&lt;/div&gt;&lt;/div&gt;&lt;/div&gt;" style="text;html=1;align=center;verticalAlign=middle;resizable=0;points=[];autosize=1;strokeColor=none;fillColor=none;" vertex="1" parent="1">
          <mxGeometry x="119" y="230" width="590" height="50" as="geometry" />
        </mxCell>
        <mxCell id="MimBpEYXxQ-8eqgBg-uS-60" value="= 1" style="text;html=1;align=center;verticalAlign=middle;resizable=0;points=[];autosize=1;strokeColor=none;fillColor=none;" vertex="1" parent="1">
          <mxGeometry x="467" y="233" width="40" height="30" as="geometry" />
        </mxCell>
        <mxCell id="MimBpEYXxQ-8eqgBg-uS-61" value="&lt;font style=&quot;color: rgb(51, 255, 51);&quot;&gt;0.269&lt;/font&gt;" style="whiteSpace=wrap;html=1;aspect=fixed;fillColor=none;strokeColor=#33FF33;" vertex="1" parent="1">
          <mxGeometry x="370" y="300" width="30" height="30" as="geometry" />
        </mxCell>
        <mxCell id="MimBpEYXxQ-8eqgBg-uS-62" value="&lt;font style=&quot;color: rgb(51, 255, 51);&quot;&gt;-0.5&lt;/font&gt;" style="whiteSpace=wrap;html=1;aspect=fixed;fillColor=none;strokeColor=#33FF33;" vertex="1" parent="1">
          <mxGeometry x="360" y="390" width="30" height="30" as="geometry" />
        </mxCell>
        <mxCell id="MimBpEYXxQ-8eqgBg-uS-63" value="&lt;font style=&quot;color: rgb(51, 255, 51);&quot;&gt;4&lt;/font&gt;" style="whiteSpace=wrap;html=1;aspect=fixed;fillColor=none;strokeColor=#33FF33;" vertex="1" parent="1">
          <mxGeometry x="360" y="480" width="30" height="30" as="geometry" />
        </mxCell>
        <mxCell id="MimBpEYXxQ-8eqgBg-uS-66" value="&lt;font style=&quot;color: rgb(51, 255, 51);&quot;&gt;3.769&lt;/font&gt;" style="whiteSpace=wrap;html=1;aspect=fixed;fillColor=none;strokeColor=#33FF33;" vertex="1" parent="1">
          <mxGeometry x="520" y="390" width="30" height="30" as="geometry" />
        </mxCell>
        <mxCell id="MimBpEYXxQ-8eqgBg-uS-68" value="&lt;font style=&quot;color: rgb(255, 0, 0);&quot;&gt;0.197&lt;/font&gt;" style="text;html=1;align=center;verticalAlign=middle;resizable=0;points=[];autosize=1;strokeColor=none;fillColor=none;" vertex="1" parent="1">
          <mxGeometry x="225" y="298" width="50" height="30" as="geometry" />
        </mxCell>
        <mxCell id="MimBpEYXxQ-8eqgBg-uS-69" value="&lt;font style=&quot;color: rgb(255, 0, 0);&quot;&gt;0.5&lt;/font&gt;" style="text;html=1;align=center;verticalAlign=middle;resizable=0;points=[];autosize=1;strokeColor=none;fillColor=none;" vertex="1" parent="1">
          <mxGeometry x="230" y="379" width="40" height="30" as="geometry" />
        </mxCell>
        <mxCell id="MimBpEYXxQ-8eqgBg-uS-70" value="&lt;font style=&quot;color: rgb(255, 0, 0);&quot;&gt;0.25&lt;/font&gt;" style="text;html=1;align=center;verticalAlign=middle;resizable=0;points=[];autosize=1;strokeColor=none;fillColor=none;" vertex="1" parent="1">
          <mxGeometry x="224" y="430" width="50" height="30" as="geometry" />
        </mxCell>
        <mxCell id="MimBpEYXxQ-8eqgBg-uS-71" value="&lt;font style=&quot;color: rgb(255, 0, 0);&quot;&gt;4&lt;/font&gt;" style="text;html=1;align=center;verticalAlign=middle;resizable=0;points=[];autosize=1;strokeColor=none;fillColor=none;" vertex="1" parent="1">
          <mxGeometry x="235" y="490" width="30" height="30" as="geometry" />
        </mxCell>
        <mxCell id="MimBpEYXxQ-8eqgBg-uS-72" value="&lt;font style=&quot;color: rgb(255, 0, 0);&quot;&gt;1&lt;/font&gt;" style="text;html=1;align=center;verticalAlign=middle;resizable=0;points=[];autosize=1;strokeColor=none;fillColor=none;" vertex="1" parent="1">
          <mxGeometry x="370" y="340" width="30" height="30" as="geometry" />
        </mxCell>
        <mxCell id="MimBpEYXxQ-8eqgBg-uS-73" value="&lt;font style=&quot;color: rgb(255, 0, 0);&quot;&gt;1&lt;/font&gt;" style="text;html=1;align=center;verticalAlign=middle;resizable=0;points=[];autosize=1;strokeColor=none;fillColor=none;" vertex="1" parent="1">
          <mxGeometry x="350" y="430" width="30" height="30" as="geometry" />
        </mxCell>
        <mxCell id="MimBpEYXxQ-8eqgBg-uS-74" value="&lt;font style=&quot;color: rgb(255, 0, 0);&quot;&gt;1&lt;/font&gt;" style="text;html=1;align=center;verticalAlign=middle;resizable=0;points=[];autosize=1;strokeColor=none;fillColor=none;" vertex="1" parent="1">
          <mxGeometry x="340" y="520" width="30" height="30" as="geometry" />
        </mxCell>
        <mxCell id="MimBpEYXxQ-8eqgBg-uS-75" value="&lt;font style=&quot;color: rgb(255, 0, 0);&quot;&gt;1&lt;/font&gt;" style="text;html=1;align=center;verticalAlign=middle;resizable=0;points=[];autosize=1;strokeColor=none;fillColor=none;" vertex="1" parent="1">
          <mxGeometry x="507" y="439" width="30" height="30" as="geometry" />
        </mxCell>
        <mxCell id="MimBpEYXxQ-8eqgBg-uS-79" value="&lt;div&gt;&lt;font style=&quot;font-size: 16px;&quot;&gt;\(\frac{\partial f}{\partial x} = \frac{\partial f}{\partial a}\frac{\partial a}{\partial x} + \frac{\partial f}{\partial b}\frac{\partial b}{\partial x} = 1*0.197 + 1*0.5 = 0.697\)&lt;/font&gt;&lt;/div&gt;" style="text;html=1;align=center;verticalAlign=middle;resizable=0;points=[];autosize=1;strokeColor=none;fillColor=none;" vertex="1" parent="1">
          <mxGeometry x="-200" y="570" width="1130" height="30" as="geometry" />
        </mxCell>
        <mxCell id="MimBpEYXxQ-8eqgBg-uS-83" value="&lt;div&gt;&lt;font style=&quot;font-size: 16px;&quot;&gt;\(\frac{\partial f}{\partial y} = \frac{\partial f}{\partial b}\frac{\partial b}{\partial y} = 1*0.25 = 0.25\)&lt;/font&gt;&lt;/div&gt;" style="text;html=1;align=center;verticalAlign=middle;resizable=0;points=[];autosize=1;strokeColor=none;fillColor=none;" vertex="1" parent="1">
          <mxGeometry x="20" y="620" width="690" height="30" as="geometry" />
        </mxCell>
        <mxCell id="MimBpEYXxQ-8eqgBg-uS-84" value="&lt;div&gt;&lt;font style=&quot;font-size: 16px;&quot;&gt;\(\frac{\partial f}{\partial z} = \frac{\partial f}{\partial c}\frac{\partial c}{\partial z} = 1*4 = 4\)&lt;/font&gt;&lt;/div&gt;" style="text;html=1;align=center;verticalAlign=middle;resizable=0;points=[];autosize=1;strokeColor=none;fillColor=none;" vertex="1" parent="1">
          <mxGeometry x="35" y="680" width="640" height="30" as="geometry" />
        </mxCell>
        <mxCell id="MimBpEYXxQ-8eqgBg-uS-85" value="&lt;div&gt;&lt;font style=&quot;font-size: 16px;&quot;&gt;\(\nabla f = \left( \frac{\partial f}{\partial x}, \frac{\partial f}{\partial y}, \frac{\partial f}{\partial z} \right) = (0.697,\; 0.25,\; 4)\)&lt;/font&gt;&lt;/div&gt;&lt;div&gt;&lt;br&gt;&lt;/div&gt;" style="text;html=1;align=center;verticalAlign=middle;resizable=0;points=[];autosize=1;strokeColor=none;fillColor=none;" vertex="1" parent="1">
          <mxGeometry x="-80" y="730" width="870" height="50" as="geometry" />
        </mxCell>
        <mxCell id="MimBpEYXxQ-8eqgBg-uS-86" value="&lt;font style=&quot;font-size: 16px;&quot;&gt;Thus,&amp;nbsp;&lt;/font&gt;" style="text;html=1;align=center;verticalAlign=middle;resizable=0;points=[];autosize=1;strokeColor=none;fillColor=none;" vertex="1" parent="1">
          <mxGeometry x="125" y="730" width="70" height="30" as="geometry" />
        </mxCell>
      </root>
    </mxGraphModel>
  </diagram>
</mxfile>
